<?xml version="1.0" standalone="no"?>
<!DOCTYPE svg PUBLIC "-//W3C//DTD SVG 20010904//EN"
 "http://www.w3.org/TR/2001/REC-SVG-20010904/DTD/svg10.dtd">
<svg version="1.0" xmlns="http://www.w3.org/2000/svg"
 width="128.000000pt" height="128.000000pt" viewBox="0 0 128.000000 128.000000"
 preserveAspectRatio="xMidYMid meet">

<g transform="translate(0.000000,128.000000) scale(0.100000,-0.100000)"
fill="#000000" stroke="none">
<path d="M230 1181 c-6 -12 -18 -21 -28 -22 -14 0 -13 -3 6 -16 12 -8 22 -22
22 -29 0 -19 5 -18 34 11 l25 25 -24 26 c-23 25 -24 25 -35 5z m25 -41 c-5 -8
-11 -8 -17 -2 -6 6 -7 16 -3 22 5 8 11 8 17 2 6 -6 7 -16 3 -22z"/>
<path d="M613 1174 c-9 -15 -19 -53 -21 -85 -4 -56 -5 -58 -26 -48 -11 6 -31
22 -42 36 -12 14 -27 22 -33 19 -16 -10 -14 -69 5 -116 13 -31 14 -46 5 -71
-6 -18 -11 -50 -11 -72 0 -30 -6 -44 -25 -59 -16 -12 -25 -30 -25 -47 0 -28
26 -61 48 -61 6 0 25 -28 42 -61 34 -68 87 -144 120 -172 l22 -19 -35 -24
c-20 -13 -50 -24 -67 -24 -48 0 -103 -33 -128 -79 -20 -35 -22 -52 -20 -128
l3 -88 333 -3 332 -2 0 92 c0 78 -4 99 -23 132 -24 43 -77 76 -120 76 -16 0
-42 9 -58 21 -16 11 -33 17 -39 14 -23 -14 -7 11 40 62 28 30 66 88 86 129 19
41 42 74 49 74 43 0 61 77 25 107 -13 11 -20 30 -20 53 -1 46 -22 102 -54 144
-17 22 -26 47 -26 70 0 41 -18 56 -36 31 -13 -17 -14 -17 -33 6 -11 13 -20 39
-21 57 0 39 -12 41 -40 5 -17 -22 -23 -24 -30 -13 -5 8 -6 27 -3 42 4 21 2 28
-10 28 -18 0 -63 -50 -72 -81 -6 -19 -8 -19 -25 -4 -10 9 -21 32 -24 51 -8 41
-20 43 -43 8z m216 -304 c22 6 43 15 46 20 12 19 23 10 46 -36 13 -28 35 -54
56 -67 32 -18 34 -23 28 -56 -17 -99 -76 -212 -143 -274 -40 -38 -97 -57 -136
-46 -90 26 -198 182 -220 319 -6 32 -3 37 28 54 19 10 42 33 52 52 16 29 24
34 54 34 20 0 44 6 54 13 15 11 24 10 56 -5 32 -16 45 -18 79 -8z m-336 -142
c7 -50 -1 -59 -27 -32 -21 20 -20 48 0 69 20 20 20 20 27 -37z m562 21 c8 -26
-2 -56 -22 -63 -22 -9 -22 -8 -16 46 6 48 26 57 38 17z m-300 -354 c17 0 40 4
53 8 34 12 28 -17 -14 -74 l-36 -50 -39 52 c-45 61 -51 84 -16 72 12 -4 36 -8
52 -8z m-109 -107 c26 -35 49 -65 51 -67 2 -3 17 3 33 12 28 17 31 17 56 0 27
-17 27 -17 53 17 56 73 76 91 94 85 15 -6 17 -22 17 -126 l0 -119 -194 0 -193
0 -5 58 c-3 31 -3 90 0 130 6 94 23 95 88 10z"/>
<path d="M651 781 c-17 -11 -7 -41 13 -41 22 0 30 20 15 36 -9 8 -19 10 -28 5z"/>
<path d="M829 774 c-9 -11 -9 -18 -1 -26 14 -14 42 -3 42 16 0 20 -27 27 -41
10z"/>
<path d="M680 592 c0 -17 50 -52 75 -52 25 0 75 35 75 52 0 7 -10 2 -23 -10
-13 -12 -36 -22 -52 -22 -16 0 -39 10 -52 22 -13 12 -23 17 -23 10z"/>
<path d="M340 1135 c0 -8 -13 -23 -30 -33 l-30 -19 30 -22 c17 -12 30 -28 30
-36 0 -8 5 -15 10 -15 6 0 10 6 10 14 0 8 13 24 29 35 l29 21 -35 35 c-39 39
-43 41 -43 20z m50 -54 c0 -3 -10 -12 -21 -19 -18 -12 -24 -11 -37 2 -14 14
-14 17 3 36 17 19 19 19 37 4 10 -10 18 -20 18 -23z"/>
<path d="M219 1040 l-24 -25 28 -29 c15 -16 27 -24 27 -18 0 6 9 20 21 30 l20
20 -24 24 -23 24 -25 -26z m37 -32 c-23 -13 -40 0 -25 18 9 11 15 12 26 2 12
-10 12 -13 -1 -20z"/>
</g>
</svg>
