<?xml version="1.0" standalone="no"?>
<!DOCTYPE svg PUBLIC "-//W3C//DTD SVG 20010904//EN"
 "http://www.w3.org/TR/2001/REC-SVG-20010904/DTD/svg10.dtd">
<svg version="1.0" xmlns="http://www.w3.org/2000/svg"
 width="128.000000pt" height="128.000000pt" viewBox="0 0 128.000000 128.000000"
 preserveAspectRatio="xMidYMid meet">

<g transform="translate(0.000000,128.000000) scale(0.100000,-0.100000)"
fill="#000000" stroke="none">
<path d="M586 969 c-14 -11 -26 -27 -26 -34 0 -8 -12 -21 -27 -29 -38 -19 -68
-54 -82 -95 -13 -39 -15 -203 -2 -183 5 9 11 -7 15 -45 4 -32 12 -67 17 -78 6
-15 8 -9 4 20 -3 22 -1 47 5 55 8 12 10 10 10 -10 0 -14 5 -32 11 -40 7 -11 8
-5 2 20 -4 19 -8 54 -8 77 0 36 7 48 51 95 28 29 57 64 63 77 13 23 13 23 42
-27 35 -63 47 -70 41 -29 -3 28 1 23 37 -35 44 -71 48 -100 27 -160 -18 -51
-10 -48 15 5 l19 42 -4 -45 c-4 -33 -3 -39 4 -23 5 12 12 49 16 82 3 33 10 58
15 55 5 -3 9 16 9 43 0 64 -37 140 -89 185 -22 19 -41 42 -41 51 0 21 -38 47
-71 47 -14 0 -38 -9 -53 -21z"/>
</g>
</svg>
