<?xml version="1.0" standalone="no"?>
<!DOCTYPE svg PUBLIC "-//W3C//DTD SVG 20010904//EN"
 "http://www.w3.org/TR/2001/REC-SVG-20010904/DTD/svg10.dtd">
<svg version="1.0" xmlns="http://www.w3.org/2000/svg"
 width="128.000000pt" height="128.000000pt" viewBox="0 0 128.000000 128.000000"
 preserveAspectRatio="xMidYMid meet">

<g transform="translate(0.000000,128.000000) scale(0.100000,-0.100000)"
fill="#000000" stroke="none">
<path d="M518 1154 c-189 -45 -348 -206 -393 -396 -36 -155 2 -322 102 -446
l35 -43 33 29 c18 16 76 46 129 67 l96 38 0 63 c0 61 -14 104 -42 127 -38 31
-43 147 -12 248 25 79 120 125 214 106 25 -5 47 -13 50 -17 3 -4 14 -9 25 -11
12 -3 31 -25 48 -59 27 -55 36 -97 17 -85 -11 7 -4 -37 10 -63 9 -18 -13 -102
-31 -116 -25 -19 -39 -65 -39 -130 l0 -62 93 -38 c50 -20 109 -50 129 -67 l37
-29 35 43 c51 63 94 161 108 250 56 363 -286 678 -644 591z"/>
</g>
</svg>
